<?xml version="1.0" encoding="UTF-8"?>
<svg id="Layer_1" xmlns="http://www.w3.org/2000/svg" viewBox="0 0 500 500">
  <defs>
    <style>
      .cls-1 {
        fill: #2264dc;
      }

      .cls-2 {
        fill: #12deec;
      }
    </style>
  </defs>
  <path class="cls-1" d="M179.95,368.86c-1.97-1.59-4.09-3.02-5.88-4.78-11.63-11.48-23.18-23.04-34.76-34.58-4.75-4.73-4.74-8.64.03-13.42,14.39-14.41,28.84-28.76,43.17-43.23,8.27-8.34,18.15-12.41,29.91-12.36,25.75.1,51.51.03,77.26.04,5.09,0,8.28,2.97,7.78,7.34-.14,1.23-.67,2.47-1.25,3.59-2.48,4.87-5.1,9.67-7.56,14.56-1.85,3.68-4.68,5.36-8.83,5.34-16.77-.08-33.54-.06-50.31-.02-5.78.01-9.48,4.64-8,9.83.91,3.19,3.72,5.51,7.22,5.52,17.88.05,35.77.23,53.65-.11,9.04-.17,15.54-5.14,19.71-13.1,6.39-12.18,12.68-24.42,19.18-36.54,2.62-4.88,5.22-9.88,8.63-14.18,6.88-8.67,16.34-12.71,27.34-12.98,6.3-.16,9.83,5.94,6.84,11.76-4.64,9.05-9.44,18.01-14.16,27.02-6.83,13.01-13.55,26.09-20.51,39.03-10.58,19.68-27.18,29.71-49.5,29.91-20.28.18-40.56.06-60.84,0-1.78,0-3,.53-4.24,1.77-8.26,8.32-16.56,16.6-24.93,24.81-1.8,1.76-3.91,3.2-5.88,4.78h-4.11Z"/>
  <g>
    <path class="cls-2" d="M186,146.01c.26-1.63.52-3.26.8-4.89.28-1.7,1.02-3.08,2.79-3.62,1.77-.55,3.12.19,4.34,1.42,3.14,3.18,6.29,6.35,9.48,9.48,3.63,3.56,8.89,3.29,11.84-.56,2.08-2.72,2.11-6.72-.22-9.32-2.47-2.75-5.17-5.3-7.77-7.93-.99-1-2.03-1.95-2.96-2.99-2.16-2.41-1.16-5.64,1.95-6.47,13.3-3.56,27.39,3.98,31.84,16.99,1.89,5.54,1.97,11.09.41,16.69-.26.93-.12,1.52.58,2.22,13.59,13.56,27.17,27.14,40.7,40.76.87.88,1.63,1.06,2.77.78,4.65-1.13,9.37-1.53,14.02-.27,10.71,2.92,17.22,9.96,19.67,20.75.87,3.84.59,7.69-.29,11.51-.36,1.57-1.2,2.73-2.79,3.19-1.54.44-2.85-.06-3.95-1.16-3.25-3.25-6.49-6.52-9.76-9.75-3.15-3.11-7.51-3.37-10.72-.69-3.09,2.59-3.67,7.37-1.01,10.42,2.46,2.81,5.21,5.38,7.84,8.05.99,1,2.02,1.95,2.97,2.99,2.17,2.37,1.19,5.69-1.93,6.47-1.6.4-3.23.63-4.85.93h-3.83c-1.04-.18-2.1-.3-3.12-.54-10.77-2.5-17.8-9-20.73-19.69-1.32-4.82-.78-9.71.37-14.52.19-.78.08-1.3-.52-1.9-13.77-13.73-27.51-27.49-41.23-41.27-.6-.6-1.11-.72-1.89-.53-4.04.98-8.13,1.47-12.26.79-10.1-1.67-16.93-7.5-20.68-16.88-1.02-2.56-1.26-5.43-1.85-8.15,0-.77,0-1.53,0-2.3Z"/>
    <path class="cls-2" d="M186,233.89c.58-2.63,1.33-5.19,3.05-7.34.53-.66,1.07-1.32,1.67-1.92,11.91-11.92,23.83-23.84,35.74-35.75.15-.15.31-.29.35-.33,7.21,7.2,14.38,14.38,21.86,21.85-.23.14-.73.35-1.08.7-10.91,10.88-21.84,21.73-32.66,32.7-3.38,3.42-6.84,6.5-11.82,7.21h-3.58c-.24-.08-.47-.19-.71-.23-4.27-.72-7.61-2.91-10.12-6.41-1.49-2.07-2.17-4.46-2.71-6.9v-3.58ZM206.44,235.74c.75.04,1.71-.69,2.61-1.59,7.43-7.43,14.86-14.86,22.29-22.29.27-.27.54-.55.77-.85,1.73-2.31.53-5.48-2.3-6.06-1.65-.34-2.85.44-3.96,1.54-7.39,7.41-14.79,14.81-22.19,22.21-.33.33-.67.66-.93,1.05-.85,1.27-.95,2.63-.22,3.98.7,1.31,1.83,1.96,3.93,2.02Z"/>
    <path class="cls-2" d="M285.05,140.46c-.52-.44-.98-.76-1.37-1.15-2.24-2.28-1.93-4.94.78-6.6,2.83-1.73,5.68-3.42,8.52-5.12,3.57-2.14,7.14-4.29,10.72-6.43,2.4-1.43,3.93-1.24,5.92.74,1.87,1.86,3.74,3.72,5.59,5.6,1.82,1.84,2.02,3.41.71,5.62-3.86,6.46-7.73,12.91-11.61,19.35-1.68,2.79-4.34,3.1-6.67.8-.6-.59-1.17-1.22-1.94-2.01-8.59,8.69-17.06,17.27-25.46,25.77-3.72-3.72-7.27-7.26-10.73-10.72,8.39-8.49,16.89-17.09,25.54-25.85Z"/>
  </g>
</svg>