<?xml version="1.0" encoding="UTF-8"?>
<svg id="Layer_1" xmlns="http://www.w3.org/2000/svg" viewBox="0 0 500 500">
  <defs>
    <style>
      .cls-1 {
        fill: #2264dc;
      }

      .cls-2 {
        fill: #12deec;
      }
    </style>
  </defs>
  <path class="cls-1" d="M254.52,346.64h-2.94c-29.32,0-58.65,0-87.97,0-16.44,0-27.04-10.64-27.04-27.12,0-31.95,0-63.9,0-95.85v-2.95h209.89v33.55c-31.27-14.59-60.16-11.54-83.66,14.62-20.76,23.11-21.89,49.79-8.28,77.75ZM178.55,254.21c-2.71,0-5.43-.04-8.14,0-4.94.09-8.61,3.66-8.63,8.35-.02,4.67,3.66,8.37,8.56,8.43,5.51.07,11.02.07,16.54,0,4.88-.07,8.55-3.8,8.5-8.48-.05-4.56-3.69-8.18-8.43-8.29-2.8-.07-5.6-.01-8.4-.01ZM229.02,271.01c2.71,0,5.43.04,8.14,0,4.93-.09,8.61-3.68,8.64-8.35.02-4.67-3.67-8.37-8.56-8.43-5.51-.07-11.02-.07-16.54,0-4.9.06-8.55,3.77-8.5,8.47.04,4.56,3.68,8.19,8.42,8.3,2.8.07,5.6.01,8.4.01ZM178.54,296.23c-2.71,0-5.43-.04-8.14,0-4.94.09-8.6,3.67-8.62,8.36-.02,4.67,3.67,8.36,8.57,8.42,5.51.07,11.02.07,16.54,0,4.88-.07,8.55-3.81,8.49-8.49-.05-4.56-3.69-8.17-8.44-8.28-2.8-.06-5.6-.01-8.4-.01Z"/>
  <path class="cls-1" d="M346.65,203.66h-210.09c0-6.4-.05-12.67.02-18.95.04-3.49-.07-7.03.47-10.46,1.87-11.84,12.1-20.65,24.12-20.85,8.48-.14,16.96-.03,25.81-.03,0-2.65-.01-5.15,0-7.65.04-5.38,3.47-9.14,8.35-9.17,4.87-.03,8.4,3.76,8.45,9.07.02,2.44,0,4.89,0,7.53h75.63c0-2.47-.02-4.97,0-7.48.04-5.36,3.51-9.12,8.39-9.13,4.86,0,8.37,3.78,8.41,9.11.02,2.44,0,4.88,0,7.69,1.07,0,1.99,0,2.91,0,7.26,0,14.53-.03,21.79,0,14.75.09,25.62,10.99,25.71,25.77.05,8.12,0,16.24,0,24.52Z"/>
  <path class="cls-2" d="M262.63,312.86c-.07-27.64,22.67-50.23,50.58-50.24,27.45-.02,50.15,22.6,50.25,50.06.1,27.89-22.4,50.71-50.06,50.76-28.17.06-50.7-22.39-50.77-50.58ZM321.44,297.01c0-2.89.03-5.77,0-8.66-.06-5.14-3.58-8.89-8.34-8.92-4.88-.04-8.44,3.73-8.46,9.05-.03,7.96.02,15.92-.02,23.88-.02,3.9,1.67,6.7,5.14,8.43,5.31,2.66,10.61,5.35,15.95,7.95,4.65,2.26,9.52.74,11.66-3.53,2.17-4.32.49-9.07-4.13-11.46-3.41-1.77-6.91-3.37-10.27-5.22-.72-.39-1.41-1.51-1.45-2.33-.17-3.05-.07-6.12-.07-9.18Z"/>
</svg>