<?xml version="1.0" encoding="UTF-8"?>
<svg id="Layer_1" xmlns="http://www.w3.org/2000/svg" viewBox="0 0 500 500">
  <defs>
    <style>
      .cls-1 {
        fill: #2264dc;
      }

      .cls-2 {
        fill: #12deec;
      }
    </style>
  </defs>
  <path class="cls-1" d="M309.34,137.09c-24.59.38-47.09,13.89-59,35.4-11.91-21.52-34.41-35.02-59-35.4-40.09,1.74-71.24,35.53-69.73,75.63,0,48.78,51.34,102.05,94.4,138.17,19.85,16.68,48.81,16.68,68.66,0,43.06-36.12,94.4-89.39,94.4-138.17,1.51-40.1-29.64-73.89-69.73-75.63Z"/>
  <path class="cls-2" d="M250.34,262.38c20.77-.02,37.61-16.86,37.63-37.63,0-19.88-31.61-47.16-35.2-50.21l-2.43-2.05-2.43,2.05c-3.59,3.05-35.2,30.33-35.2,50.21.02,20.77,16.86,37.61,37.63,37.63Z"/>
</svg>