<?xml version="1.0" encoding="UTF-8"?>
<svg id="Layer_1" xmlns="http://www.w3.org/2000/svg" viewBox="0 0 500 500">
  <defs>
    <style>
      .cls-1 {
        fill: #2264dc;
      }

      .cls-2 {
        fill: #12deec;
      }
    </style>
  </defs>
  <path class="cls-2" d="M205.49,223.25c-7.89,0-15.81.45-23.67-.09-22.72-1.55-42.58-20.14-46.03-42.61-4.57-29.82,14.98-56.01,44.88-60.12,26.23-3.6,52.45,15.65,56.87,41.86.59,3.52.91,7.13.94,10.7.11,12.47.05,24.94.04,37.41-.01,8.55-4.6,13.15-13.13,13.17-6.64.01-13.28,0-19.92,0,0-.11,0-.22,0-.33Z"/>
  <path class="cls-1" d="M294.36,223.58c-6.73,0-13.46.02-20.19,0-8.02-.04-12.76-4.72-12.73-12.73.06-14.71-.38-29.45.46-44.12,1.29-22.62,20.31-42.54,42.73-45.89,29.85-4.46,56.06,15.25,59.95,45.08,3.68,28.2-18.16,55.25-46.57,57.27-7.85.56-15.78.08-23.67.08,0,.11,0,.21,0,.32Z"/>
  <path class="cls-2" d="M261.43,280.81c0-7.18-.02-14.37,0-21.55.03-8.04,4.71-12.8,12.7-12.77,14.72.06,29.48-.39,44.15.48,22.68,1.34,42.3,19.99,45.86,42.48,4.44,28.02-12.95,53.43-40.66,59.42-29.61,6.41-59.31-15.49-61.64-45.73-.57-7.4-.08-14.89-.08-22.34-.11,0-.23,0-.34,0Z"/>
  <path class="cls-1" d="M204.24,246.48c7.18,0,14.37-.02,21.55,0,8.02.03,12.76,4.72,12.73,12.74-.06,14.72.37,29.47-.48,44.15-1.3,22.59-20.08,42.33-42.52,45.83-28.07,4.38-53.41-12.99-59.4-40.71-6.39-29.61,15.52-59.27,45.79-61.6,7.4-.57,14.89-.09,22.34-.09v-.34Z"/>
</svg>