<?xml version="1.0" encoding="UTF-8"?>
<svg id="Layer_1" xmlns="http://www.w3.org/2000/svg" viewBox="0 0 500 500">
  <defs>
    <style>
      .cls-1 {
        fill: #2264dc;
      }

      .cls-2 {
        fill: #12deec;
      }
    </style>
  </defs>
  <path class="cls-1" d="M250.05,174.77c32.5,0,65-.03,97.5.01,15.83.02,28.79,9.93,32.46,24.81.66,2.67.94,5.5.94,8.25.06,40.67.07,81.33.02,122-.02,18.98-14.43,33.36-33.47,33.37-65,.04-130,.04-195,0-19.14-.01-33.46-14.47-33.47-33.64-.03-40.4-.03-80.79,0-121.19.02-19.17,14.36-33.56,33.52-33.59,32.5-.05,65-.01,97.5-.01ZM200.97,322.1c13.19,0,26.37,0,39.56,0,.9,0,1.8.02,2.69-.07,5.42-.56,8.71-5.39,7.23-10.65-.31-1.12-.73-2.21-1.09-3.31-6.87-21.22-27.03-35.64-48.99-35.06-22.94.61-42.48,15.72-48.4,37.44-2.03,7.46,1.15,11.64,8.91,11.65,13.37.01,26.73,0,40.1,0ZM225.39,240.21c.02-13.52-10.92-24.52-24.4-24.55-13.48-.03-24.53,10.88-24.67,24.35-.14,13.46,11.05,24.69,24.61,24.69,13.48,0,24.44-10.98,24.46-24.49ZM303.07,239.91c-12.03,0-24.05-.01-36.08,0-5.15,0-8.83,3.35-8.94,8.04-.11,4.71,3.44,8.49,8.51,8.51,24.41.08,48.82.05,73.23.02,2.85,0,5.28-1.08,6.9-3.52,1.76-2.67,2.05-5.55.61-8.43-1.55-3.08-4.17-4.61-7.62-4.62-12.2-.02-24.41,0-36.61,0ZM282.82,272.75c-5.29,0-10.58-.02-15.87,0-5.17.02-8.81,3.32-8.91,8.04-.1,4.73,3.46,8.41,8.52,8.46,10.76.09,21.52.09,32.28,0,5.16-.04,8.6-3.61,8.48-8.44-.11-4.64-3.69-8.01-8.63-8.05-5.29-.04-10.58,0-15.87,0Z"/>
  <path class="cls-2" d="M200.97,322.1c-13.37,0-26.73.01-40.1,0-7.76,0-10.94-4.19-8.91-11.65,5.92-21.72,25.46-36.83,48.4-37.44,21.97-.58,42.12,13.84,48.99,35.06.36,1.11.78,2.2,1.09,3.31,1.48,5.25-1.81,10.09-7.23,10.65-.89.09-1.79.07-2.69.07-13.19,0-26.37,0-39.56,0Z"/>
  <path class="cls-2" d="M225.39,240.21c-.02,13.51-10.99,24.49-24.46,24.49-13.56,0-24.75-11.23-24.61-24.69.14-13.47,11.19-24.38,24.67-24.35,13.48.03,24.42,11.03,24.4,24.55Z"/>
  <path class="cls-2" d="M303.07,239.91c12.2,0,24.41-.01,36.61,0,3.44,0,6.07,1.54,7.62,4.62,1.45,2.88,1.16,5.76-.61,8.43-1.62,2.44-4.05,3.52-6.9,3.52-24.41.02-48.82.06-73.23-.02-5.07-.02-8.62-3.79-8.51-8.51.11-4.69,3.79-8.03,8.94-8.04,12.03-.02,24.05,0,36.08,0Z"/>
  <path class="cls-2" d="M282.82,272.75c5.29,0,10.58-.03,15.87,0,4.95.04,8.52,3.41,8.63,8.05.11,4.83-3.32,8.4-8.48,8.44-10.76.09-21.52.09-32.28,0-5.06-.04-8.63-3.73-8.52-8.46.1-4.72,3.74-8.03,8.91-8.04,5.29-.02,10.58,0,15.87,0Z"/>
</svg>