<?xml version="1.0" encoding="UTF-8"?>
<svg id="Layer_1" xmlns="http://www.w3.org/2000/svg" viewBox="0 0 500 500">
  <defs>
    <style>
      .cls-1 {
        fill: #2264dc;
      }

      .cls-2 {
        fill: #12deec;
      }
    </style>
  </defs>
  <path class="cls-1" d="M298.85,313.05v63.56h42.37c17.55,0,31.78-14.23,31.78-31.78v-96.61c0-5.5-2.14-10.79-5.96-14.74l-90.01-97.31c-15.88-17.18-42.69-18.24-59.87-2.36-.82.75-1.6,1.54-2.36,2.36l-89.86,97.28c-3.94,3.97-6.16,9.34-6.15,14.94v96.46c0,17.55,14.23,31.78,31.78,31.78h42.37v-63.56c.2-28.88,23.52-52.47,51.67-53.15,29.1-.7,54.03,23.29,54.25,53.15Z"/>
  <path class="cls-2" d="M245.89,303.71c-13.48,0-24.4,10.93-24.4,24.4v48.8h48.8v-48.8c0-13.48-10.93-24.4-24.4-24.4Z"/>
</svg>