<?xml version="1.0" encoding="UTF-8"?>
<svg id="Layer_1" xmlns="http://www.w3.org/2000/svg" viewBox="0 0 500 500">
  <defs>
    <style>
      .cls-1 {
        fill: #2264dc;
      }

      .cls-2 {
        fill: #12deec;
      }
    </style>
  </defs>
  <path class="cls-1" d="M252.31,360.12h-110.76c-.17-.15-.33-.35-.53-.45-5.42-2.72-6.44-7.77-2.42-12.38,6.13-7.04,12.29-14.06,18.45-21.09-2.19-2.87-4.48-5.52-6.39-8.42-16.38-24.91-19.73-51.14-6.52-78.32,10.71-22.02,28.87-36.24,51.26-45.23,20.22-8.12,41.22-10.29,62.69-6.79,26.06,4.24,48.41,15.52,65.66,35.94,22.13,26.2,24.53,61.7,5.78,90.35-14.72,22.49-35.81,36.34-61.49,43.41-5.13,1.41-10.48,2.02-15.73,3ZM209.36,271.32c0-8.03-6.53-14.62-14.54-14.66-8.04-.04-14.65,6.47-14.71,14.48-.06,8.14,6.54,14.8,14.66,14.78,8.01-.02,14.59-6.6,14.6-14.61ZM239.29,256.66c-8.04-.07-14.69,6.41-14.79,14.41-.1,8.05,6.36,14.73,14.35,14.85,8.14.13,14.87-6.44,14.91-14.53.04-8.04-6.47-14.66-14.47-14.73ZM298.16,271.22c-.04-8.02-6.62-14.56-14.64-14.56-8.12,0-14.7,6.68-14.61,14.83.08,8,6.73,14.5,14.76,14.44,8-.06,14.53-6.69,14.5-14.71Z"/>
  <path class="cls-2" d="M386,265.93c-1.94,4.24-5.27,5.62-9.83,5.44-6.4-.27-12.81-.07-19.14-.07-.69-5.34-1.05-10.52-2.06-15.59-4.09-20.64-14.46-37.79-29.8-51.96-18.84-17.4-41.27-27.31-66.52-31.05-20.68-3.07-40.99-1.28-60.91,5.04-.43.14-.89.22-2.16.52,1.73-5.19,2.97-9.97,4.89-14.46,7.64-17.81,20.52-31.1,37.47-39.94,36.74-19.17,73.55-18.83,109.39,2.33,18.29,10.79,30.9,26.65,36.45,47.52,1.02,3.82,1.49,7.79,2.22,11.69v10.74c-.15.7-.37,1.39-.44,2.1-1.21,11.17-4.96,21.45-11.06,30.86-2.24,3.45-4.8,6.7-7.32,10.18,2.44,2.85,4.95,5.7,7.37,8.63,3.85,4.68,7.64,9.4,11.46,14.11v3.9Z"/>
</svg>