<?xml version="1.0" encoding="UTF-8"?>
<svg id="Layer_1" xmlns="http://www.w3.org/2000/svg" viewBox="0 0 500 500">
  <defs>
    <style>
      .cls-1 {
        fill: #2264dc;
      }

      .cls-2 {
        fill: #12deec;
      }
    </style>
  </defs>
  <path class="cls-1" d="M197.96,122.8h104.15c4.29,1.98,5.53,5.39,5.52,10.01-.09,81.46-.07,162.93-.07,244.39h-20.33c0-15.63,0-31.26,0-46.89,0-5.94-2.85-8.75-8.84-8.75-18.9,0-37.81,0-56.71,0-5.99,0-8.83,2.82-8.84,8.75,0,15.63,0,31.26,0,46.89h-20.33c0-81.46.03-162.93-.07-244.39,0-4.62,1.23-8.03,5.52-10.01ZM227.71,157.83c0-2.56.06-5.12-.01-7.68-.12-4.23-3.32-7.43-7.36-7.47-4.14-.04-7.42,3.23-7.48,7.59-.07,4.87-.07,9.74,0,14.61.06,4.36,3.34,7.63,7.48,7.59,4.04-.04,7.24-3.24,7.36-7.47.07-2.39.01-4.79.01-7.18ZM257.46,157.39c0-2.48.08-4.96-.02-7.43-.16-4.18-3.51-7.35-7.54-7.28-3.94.07-7.19,3.21-7.28,7.29-.1,5.03-.1,10.07,0,15.11.08,4.21,3.38,7.4,7.42,7.4,4.04,0,7.28-3.2,7.42-7.41.08-2.56.01-5.12.01-7.68ZM287.22,157.37c0-2.48.08-4.96-.02-7.43-.16-4.07-3.37-7.2-7.31-7.26-4.04-.06-7.42,3.13-7.51,7.3-.1,5.03-.1,10.07,0,15.11.08,4.2,3.4,7.4,7.43,7.38,4.04-.01,7.27-3.21,7.4-7.43.08-2.56.01-5.12,0-7.68ZM212.84,202.32c0,2.39-.04,4.79,0,7.18.08,4.4,3.24,7.67,7.39,7.7,4.15.02,7.4-3.23,7.46-7.61.07-4.87.07-9.74,0-14.61-.07-4.37-3.36-7.62-7.5-7.57-4.14.05-7.27,3.32-7.35,7.73-.04,2.39,0,4.79,0,7.18ZM242.6,202.04c0,2.56-.06,5.12.01,7.68.11,4.22,3.31,7.44,7.35,7.48,4.04.04,7.39-3.14,7.48-7.34.11-5.03.1-10.07,0-15.11-.08-4.19-3.43-7.38-7.46-7.35-4.05.03-7.25,3.24-7.37,7.46-.07,2.39-.01,4.79-.01,7.18ZM287.22,202.32c0-2.56.08-5.12-.02-7.68-.16-4.07-3.38-7.2-7.33-7.24-4.04-.05-7.41,3.14-7.49,7.32-.1,5.03-.1,10.07,0,15.11.08,4.19,3.41,7.39,7.45,7.37,4.04-.02,7.26-3.22,7.38-7.45.07-2.47.01-4.95,0-7.43ZM227.71,247.02c0-2.48.06-4.96-.01-7.43-.12-4.23-3.31-7.43-7.36-7.47-4.14-.04-7.43,3.22-7.49,7.59-.07,4.87-.07,9.74,0,14.61.06,4.37,3.34,7.63,7.48,7.6,4.14-.03,7.29-3.3,7.37-7.71.05-2.39,0-4.79,0-7.18ZM257.47,247.22c0-2.48.04-4.96,0-7.43-.09-4.4-3.26-7.66-7.41-7.67-4.14-.01-7.39,3.25-7.44,7.63-.06,4.87-.07,9.74,0,14.61.06,4.35,3.38,7.61,7.52,7.55,4.04-.06,7.21-3.27,7.32-7.51.07-2.39.01-4.79.01-7.18ZM272.35,247.06c0,2.39-.04,4.79,0,7.18.09,4.4,3.26,7.66,7.41,7.68,4.14.01,7.38-3.24,7.44-7.63.07-4.87.07-9.74,0-14.61-.07-4.36-3.38-7.61-7.52-7.55-4.04.06-7.21,3.27-7.32,7.51-.06,2.48-.01,4.95-.01,7.43ZM212.84,291.76c0,2.39-.04,4.79,0,7.18.08,4.4,3.25,7.67,7.4,7.69,4.15.02,7.39-3.23,7.45-7.62.07-4.87.07-9.74,0-14.61-.07-4.36-3.37-7.61-7.51-7.56-4.04.05-7.22,3.27-7.33,7.5-.06,2.48-.01,4.95-.01,7.43ZM257.47,291.57c0-2.39.05-4.79-.01-7.18-.11-4.36-3.39-7.61-7.53-7.55-4.04.06-7.25,3.27-7.31,7.51-.07,4.95-.08,9.91,0,14.86.07,4.21,3.35,7.41,7.4,7.42,4.04,0,7.3-3.18,7.44-7.39.08-2.56.02-5.12.02-7.68ZM287.23,291.91c0-2.56.07-5.12-.01-7.68-.13-4.21-3.39-7.4-7.43-7.39-4.04,0-7.33,3.2-7.4,7.41-.09,4.95-.08,9.91,0,14.86.06,4.24,3.26,7.46,7.3,7.52,4.14.07,7.42-3.18,7.54-7.54.06-2.39.01-4.79,0-7.18Z"/>
  <path class="cls-2" d="M128.52,377.2c-4.29-1.98-5.53-5.39-5.52-10.01.11-45.28.07-90.56.07-135.84,0-6.49,2.69-9.18,9.17-9.18,14.13,0,28.26,0,42.39,0,.9,0,1.79,0,3,0v155.03h-49.1ZM157.78,267.05c0-2.56.07-5.12-.02-7.68-.14-4.2-3.41-7.39-7.45-7.38-4.05.01-7.31,3.22-7.39,7.43-.09,4.95-.08,9.91,0,14.86.07,4.23,3.28,7.45,7.32,7.5,4.14.06,7.41-3.2,7.52-7.56.06-2.39.01-4.79,0-7.18ZM157.77,311.39c0-2.48.08-4.96-.02-7.43-.16-4.07-3.38-7.2-7.32-7.24-4.04-.05-7.41,3.14-7.49,7.32-.1,5.03-.1,10.07,0,15.11.08,4.19,3.41,7.39,7.45,7.37,4.04-.02,7.26-3.22,7.39-7.44.08-2.56.01-5.12,0-7.68Z"/>
  <path class="cls-2" d="M322.44,377.2v-155.03h2.7c13.96,0,27.92.13,41.88-.07,4.61-.06,8.01,1.23,9.98,5.54v144.09c-1.19,2.46-3.01,4.27-5.46,5.47h-49.1ZM357.16,267.14c0-2.56.06-5.12-.01-7.68-.12-4.23-3.32-7.43-7.36-7.47-4.14-.04-7.43,3.22-7.49,7.59-.07,4.87-.07,9.74,0,14.61.06,4.37,3.34,7.63,7.48,7.6,4.14-.03,7.28-3.3,7.37-7.71.05-2.31,0-4.62,0-6.94ZM357.16,311.59c0-2.39.04-4.79,0-7.18-.09-4.41-3.25-7.67-7.39-7.69-4.14-.02-7.41,3.24-7.46,7.61-.06,4.87-.07,9.74,0,14.61.06,4.36,3.36,7.62,7.5,7.57,4.04-.05,7.22-3.25,7.34-7.49.07-2.48.01-4.95.01-7.43Z"/>
  <path class="cls-1" d="M227.72,377.2v-40.57h14.88v40.57h-14.88Z"/>
  <path class="cls-1" d="M257.47,377.2v-40.57h14.88v40.57h-14.88Z"/>
</svg>