<?xml version="1.0" encoding="UTF-8"?>
<svg id="Layer_1" xmlns="http://www.w3.org/2000/svg" viewBox="0 0 500 500">
  <defs>
    <style>
      .cls-1 {
        fill: #2264dc;
      }

      .cls-2 {
        fill: #12deec;
      }
    </style>
  </defs>
  <path class="cls-1" d="M392.78,289.04c-3.57,8.24-6.28,16.79-9.39,25.19-4.93,13.3-9.72,26.66-14.6,39.98-1.72,4.7-4.71,6.79-9.71,6.82-5.68.03-11.36-.1-17.03.03-2.06.05-2.58-.64-2.27-2.54,1.43-8.85,2.62-17.74,4.26-26.55,1.99-10.67,1.25-20.75-5.66-29.59-6.35-8.13-14.78-12.75-25.18-12.78-42.07-.12-84.15-.13-126.22-.06-17.95.03-32.45,14.49-32.5,32.48-.02,7.03,1.86,13.9,2.84,20.85.74,5.22,1.62,10.42,2.46,15.62.29,1.76.04,2.67-2.18,2.61-5.67-.17-11.35-.04-17.03-.07-5.05-.03-8.12-2.24-9.86-7.04-7.61-20.9-15.04-41.87-22.91-62.67-3.07-8.11,2.29-14.23,9.78-14.01,11.63.34,23.27.06,34.9.1,1.8,0,2.61-.31,3.09-2.41,4.48-19.29,15.76-33.08,34.02-40.95,6.62-2.85,13.6-4.24,20.84-4.23,25.69.02,51.39.2,77.07-.05,27.37-.27,51.02,18.66,56.54,45.58.31,1.49.68,2.05,2.21,2.03,5.68-.05,11.36-.02,17.03.05,1.7.02,2.33-.52,2.06-2.28-2.89-19.07-11.81-34.57-27.18-46.33-1.45-1.11-2.54-1.16-4.23-.43-9.51,4.13-20.48-1.03-23.77-11.05-3.2-9.75,2.66-20.19,12.77-22.74,10.06-2.53,20.09,3.93,21.78,14.13.37,2.24,1.33,3.7,3.22,5.09,18.02,13.28,29.29,30.99,34.1,52.81.65,2.97.88,6.04,1.21,9.08.1.9.12,1.71,1.23,1.8,4.18.36,6.54,3.03,8.29,6.48v5.03Z"/>
  <path class="cls-1" d="M194.68,157.98c-.11-30.46,24.27-54.91,54.63-55.24,31.01-.34,55.77,25.26,55.72,55.24-.04,28.7-22.88,54.99-54.9,55.17-32.26.18-55.68-26.11-55.44-55.17Z"/>
  <path class="cls-2" d="M317.9,360.58c2.07-13.52,4.06-27.04,6.24-40.54,1.12-6.95-2.95-12.08-10.05-12.08-42.93-.02-85.86-.02-128.78,0-6.27,0-10.68,5.08-9.83,11.29,1.07,7.79,2.32,15.55,3.52,23.32.94,6.08,1.88,12.15,2.82,18.22,1.56,10.05,10.2,17.46,20.37,17.46h95.3c10.19,0,18.84-7.44,20.38-17.51,0-.06.02-.12.03-.18Z"/>
</svg>