<svg xmlns="http://www.w3.org/2000/svg" viewBox="0 0 100 100" fill="none">
  <rect width="100" height="100" rx="12" fill="#F3F4F6"/>
  <path d="M50 25C36.19 25 25 36.19 25 50C25 63.81 36.19 75 50 75C63.81 75 75 63.81 75 50C75 36.19 63.81 25 50 25ZM50 35C55.52 35 60 39.48 60 45C60 50.52 55.52 55 50 55C44.48 55 40 50.52 40 45C40 39.48 44.48 35 50 35ZM50 70C42.5 70 35.94 66.06 32.5 60.12C32.62 55.06 42.5 52.25 50 52.25C57.47 52.25 67.38 55.06 67.5 60.12C64.06 66.06 57.5 70 50 70Z" fill="#9CA3AF"/>
</svg>
