<?xml version="1.0" encoding="UTF-8"?>
<svg id="Layer_1" xmlns="http://www.w3.org/2000/svg" viewBox="0 0 500 500">
  <defs>
    <style>
      .cls-1 {
        fill: #2264dc;
      }

      .cls-2 {
        fill: #12deec;
      }
    </style>
  </defs>
  <path class="cls-2" d="M372.54,236.21c-5.73-.07-11.47-.18-17.2-.11-.56,0-1.4,1.1-1.61,1.83-1.88,6.49-4.66,12.54-8.53,18.07-.73,1.04-1.51,2.03-2.34,3.15-20.7-20.7-41.26-41.26-61.91-61.91-5.57,5.58-10.92,10.95-16.28,16.31-8.24,8.24-16.41,16.54-24.73,24.69-8.34,8.17-21.85,4.52-24.65-6.63-1.27-5.06-.21-9.78,3.49-13.52,12.98-13.09,25.83-26.3,39.18-39,10.71-10.18,23.9-15.1,38.7-15.16,25.29-.1,50.58-.02,75.88-.01v72.31Z"/>
  <path class="cls-1" d="M283.29,303.53c2.09,3.91,2.74,7.95,1.34,12.21-3.38,10.25-16.05,13.37-24.15,5.85-2.68-2.49-5.13-5.23-7.35-7.51.31,3.23,1.35,6.76.82,10.02-1.85,11.29-15.17,15.84-23.91,8.42-.79-.67-1.52-1.41-2.25-2.15-21.84-21.84-43.64-43.71-65.53-65.5-7.69-7.66-13.2-16.54-16.02-27.03-.4-1.48-1.06-1.87-2.47-1.85-4.55.07-9.1.02-13.65.02-.86,0-1.72,0-2.67,0v-72c.8-.04,1.57-.11,2.33-.11,24.42,0,48.84-.04,73.26,0,12.5.02,23.83,3.8,34,11.08.77.55,1.49,1.16,2.38,1.86-.68.73-1.24,1.37-1.84,1.97-9.48,9.48-19,18.92-28.42,28.46-8.11,8.2-10.71,18.07-7.49,29.05,3.23,11.02,10.89,17.89,22.15,20.18,10.18,2.07,19.1-.89,26.48-8.22,9.57-9.5,19.09-19.05,28.6-28.62.6-.61.94-1.49,1.64-2.64,2.29,2.45,3.87,4.24,5.55,5.93,18.72,18.75,37.44,37.49,56.21,56.19,4.36,4.35,6.32,9.36,4.59,15.41-3.03,10.58-16.02,13.97-24.27,6.33-2.63-2.43-5.04-5.1-7.96-7.43.18.51.33,1.03.54,1.53,2.69,6.51.71,13.73-4.85,17.7-5.53,3.94-13.22,3.6-18.34-1.08-2.87-2.63-5.42-5.62-8.11-8.44-.21.12-.41.25-.62.37Z"/>
</svg>