<?xml version="1.0" encoding="UTF-8"?>
<svg id="Layer_1" xmlns="http://www.w3.org/2000/svg" viewBox="0 0 500 500">
  <defs>
    <style>
      .cls-1 {
        fill: #2264dc;
      }

      .cls-2 {
        fill: #12deec;
      }
    </style>
  </defs>
  <path class="cls-2" d="M254.91,135.74c4.56.99,9.23,1.6,13.65,3.02,26.22,8.42,43.73,34.25,41.59,61.06-2.27,28.53-22.78,51.11-50.5,55.62-34.23,5.56-66.04-18.85-69.56-53.4-3.35-32.8,20.6-62.42,53.28-65.9.58-.06,1.15-.26,1.72-.39,3.27,0,6.55,0,9.82,0Z"/>
  <path class="cls-1" d="M250.01,364.26c-30.78,0-61.57,0-92.35,0-5.64,0-8.14-2.55-8.06-8.2.56-42.35,31.85-78.59,73.8-85.39,3.8-.62,7.69-.91,11.54-.97,9.66-.14,19.33-.14,29-.04,38.87.38,73.1,26.86,83.31,64.38,1.98,7.28,3.05,14.68,3.17,22.22.08,5.35-2.5,7.99-7.82,7.99-30.86,0-61.72,0-92.57,0Z"/>
</svg>