<?xml version="1.0" encoding="UTF-8"?>
<svg id="Layer_1" xmlns="http://www.w3.org/2000/svg" viewBox="0 0 500 500">
  <defs>
    <style>
      .cls-1 {
        fill: #2264dc;
      }

      .cls-2 {
        fill: #12deec;
      }
    </style>
  </defs>
  <path class="cls-1" d="M168.5,127.75h30.56c22.5,0,40.75,18.24,40.75,40.75v30.56c0,22.5-18.24,40.75-40.75,40.75h-30.56c-22.5,0-40.75-18.24-40.75-40.75v-30.56c0-22.5,18.24-40.75,40.75-40.75Z"/>
  <path class="cls-2" d="M300.94,127.75h30.56c22.5,0,40.75,18.24,40.75,40.75v30.56c0,22.5-18.24,40.75-40.75,40.75h-30.56c-22.5,0-40.75-18.24-40.75-40.75v-30.56c0-22.5,18.24-40.75,40.75-40.75Z"/>
  <path class="cls-2" d="M168.5,260.19h30.56c22.5,0,40.75,18.24,40.75,40.75v30.56c0,22.5-18.24,40.75-40.75,40.75h-30.56c-22.5,0-40.75-18.24-40.75-40.75v-30.56c0-22.51,18.24-40.75,40.75-40.75Z"/>
  <path class="cls-1" d="M300.94,260.19h30.56c22.5,0,40.75,18.24,40.75,40.75v30.56c0,22.51-18.24,40.75-40.75,40.75h-30.56c-22.5,0-40.75-18.24-40.75-40.75v-30.56c0-22.51,18.24-40.75,40.75-40.75Z"/>
</svg>