<?xml version="1.0" encoding="UTF-8"?>
<svg id="Layer_1" xmlns="http://www.w3.org/2000/svg" viewBox="0 0 500 500">
  <defs>
    <style>
      .cls-1 {
        fill: #2264dc;
      }

      .cls-2 {
        fill: #12deec;
      }
    </style>
  </defs>
  <path class="cls-1" d="M178.03,148.41c1.04-6.51,4.74-10.24,10.15-10.44,5.89-.21,9.41,2.97,11.24,10.29h23.98c1.39-7.95,6.66-10.66,11.85-10.26,5.1.39,8.58,4.06,9.63,10.29h24.26c.37-3.29,1.46-6.45,4.44-8.23,1.82-1.08,4.06-1.9,6.16-2.01,5.49-.29,8.32,2.57,10.91,10.36h23.76c2.83-8.2,6.07-10.95,12.14-10.39,4.99.46,8.41,4.16,9.42,10.4,5.19,0,10.43-.05,15.66.01,9.88.12,18.05,6.57,20.35,16.16.49,2.05.65,4.22.65,6.34.03,51.56.03,103.11.02,154.67,0,11.48-6.6,19.99-17.15,22.08-1.75.35-3.59.36-5.39.36-62.07.02-124.15.02-186.22,0-13.8,0-22.55-8.81-22.55-22.68,0-35.63,0-71.26,0-106.89,0-15.76,0-31.52,0-47.29,0-13.98,8.79-22.76,22.74-22.77,4.59,0,9.18,0,13.95,0ZM335.83,169.58c0,3.65.05,7.01-.01,10.36-.08,4.55-2.76,8.34-6.89,9.85-6.94,2.54-13.92-2.41-14.14-10.11-.09-3.33-.02-6.67-.02-10.01h-24.46c0,1.76.02,3.31,0,4.86-.03,2.21.08,4.45-.17,6.64-.65,5.71-5.34,9.51-11.12,9.19-5.35-.3-9.58-4.71-9.7-10.21-.07-3.5-.01-7-.01-10.52h-24.59c0,3.59.06,7.02-.02,10.45-.09,4.23-2.09,7.38-5.86,9.26-6.91,3.45-14.7-1.34-15.08-9.31-.16-3.42-.03-6.85-.03-10.39h-24.49c0,3.35.05,6.53,0,9.72-.11,6.55-4.55,11.1-10.7,11.03-5.99-.07-10.31-4.7-10.35-11.11-.02-3.18,0-6.36,0-9.64h-15.59v31.05h188.87v-31.11h-15.62ZM242.59,288.01c-.62-.89-1.05-1.72-1.68-2.36-6.01-6.06-12.07-12.07-18.09-18.12-2.97-2.98-6.48-4.14-10.55-3.03-7.9,2.15-10.37,11.69-4.5,17.65,8.87,9,17.85,17.89,26.79,26.82,5.56,5.56,11.34,5.53,16.94-.07,17.58-17.58,35.16-35.16,52.74-52.74.93-.93,1.9-1.83,2.74-2.83,4.92-5.87,2.24-14.72-5.11-16.82-4.4-1.26-7.97.24-11.12,3.4-15.22,15.29-30.5,30.54-45.76,45.8-.63.63-1.28,1.23-2.4,2.3Z"/>
  <path class="cls-2" d="M242.59,288.01c1.12-1.07,1.77-1.67,2.4-2.3,15.26-15.26,30.54-30.5,45.76-45.8,3.15-3.16,6.71-4.67,11.12-3.4,7.35,2.11,10.03,10.96,5.11,16.82-.84,1-1.81,1.9-2.74,2.83-17.58,17.58-35.16,35.16-52.74,52.74-5.6,5.6-11.38,5.62-16.94.07-8.94-8.93-17.92-17.82-26.79-26.82-5.86-5.96-3.4-15.5,4.5-17.65,4.07-1.11,7.59.06,10.55,3.03,6.02,6.05,12.08,12.06,18.09,18.12.63.64,1.06,1.47,1.68,2.36Z"/>
</svg>