<?xml version="1.0" encoding="UTF-8"?>
<svg id="Layer_1" xmlns="http://www.w3.org/2000/svg" viewBox="0 0 500 500">
  <defs>
    <style>
      .cls-1 {
        fill: #2264dc;
      }

      .cls-2 {
        fill: #12deec;
      }
    </style>
  </defs>
  <path class="cls-1" d="M240.04,130.42h-79.72c-16.51,0-29.89,13.38-29.89,29.89v209.26h139.51v-209.26c0-16.51-13.38-29.89-29.89-29.89ZM190.21,319.75h-29.89v-19.93h29.89v19.93ZM190.21,279.89h-29.89v-19.93h29.89v19.93ZM190.21,240.04h-29.89v-19.93h29.89v19.93ZM190.21,200.18h-29.89v-19.93h29.89v19.93ZM240.04,319.75h-29.89v-19.93h29.89v19.93ZM240.04,279.89h-29.89v-19.93h29.89v19.93ZM240.04,240.04h-29.89v-19.93h29.89v19.93ZM240.04,200.18h-29.89v-19.93h29.89v19.93Z"/>
  <path class="cls-2" d="M339.68,180.25h-49.82v189.33h79.72v-159.44c0-16.51-13.38-29.89-29.89-29.89ZM339.68,319.75h-19.93v-19.93h19.93v19.93ZM339.68,279.89h-19.93v-19.93h19.93v19.93ZM339.68,240.04h-19.93v-19.93h19.93v19.93Z"/>
</svg>